<?xml version="1.0" encoding="UTF-8"?><svg id="Layer_2" xmlns="http://www.w3.org/2000/svg" viewBox="0 0 899.5 662.11"><path d="M0,.86H443.71V113.08h-154.55l-.84,253.79s6.91,167.47,196.82,177.83c0,0,132.94,6.91,186.46-96.68l227.9,214.08h-182.12l-49.23-44.89s-69.06,44.89-173.44,44.89c0,0-322.06,0-335.87-291.78V109.63H0V.86Z"/><path d="M487.2,0V113.08s97.21-9.5,150.73,50.93c0,0,89.78,88.05,48.34,231.35l96.68,93.23c.06,.58,53.52-86.32,29.35-252.07,0,0-12.09-103.59-129.49-188.19,0,0-67.33-48.34-195.62-48.34Z"/></svg>